<svg xmlns="http://www.w3.org/2000/svg" width="649" height="642" viewBox="0 0 649 642" version="1.1"><path d="M 38.767 2.167 C 39.631 3.031, 40.530 3.048, 42.217 2.235 C 44.361 1.202, 44.290 1.131, 41.050 1.068 C 38.420 1.016, 37.878 1.278, 38.767 2.167 M 0.667 49.667 C 0.300 50.033, -0 168.833, -0 313.667 C -0 551.695, 0.150 577, 1.562 577 C 2.934 577, 3.130 573.946, 3.181 551.750 C 3.212 537.863, 3.293 522, 3.359 516.500 C 3.894 472.293, 2.814 49, 2.167 49 C 1.708 49, 1.033 49.300, 0.667 49.667 M 351 547.500 L 351 592 379.500 592 L 408 592 408 582.500 C 408 575.592, 407.659 572.987, 406.750 572.953 C 406.063 572.926, 398.871 572.947, 390.768 572.997 C 372.038 573.115, 371.818 573.010, 372.206 564.191 L 372.500 557.500 388.250 557.225 L 404 556.949 404 547 L 404 537.051 388.250 536.775 L 372.500 536.500 372.184 532.080 C 372.011 529.649, 372.132 526.612, 372.453 525.330 L 373.038 523 390.019 523 L 407 523 407 513 L 407 503 379 503 L 351 503 351 547.500 M 417 512.967 L 417 522.934 428.250 523.217 L 439.500 523.500 439.763 557.750 L 440.026 592 450.500 592 L 460.974 592 461.237 557.750 L 461.500 523.500 472.750 523.217 L 484 522.934 484 512.967 L 484 503 450.500 503 L 417 503 417 512.967 M 494 547.500 L 494 592 504.500 592 L 515 592 515 547.500 L 515 503 504.500 503 L 494 503 494 547.500 M 532.458 504.250 C 532.194 504.938, 532.095 524.850, 532.239 548.500 L 532.500 591.500 543.250 591.784 L 554 592.068 554 582.008 L 554 571.948 557.713 566.974 C 559.756 564.238, 561.772 562, 562.193 562 C 562.909 562, 565.572 565.278, 580.388 584.401 L 586.276 592 599.138 592 C 606.212 592, 612 591.652, 612 591.227 C 612 590.801, 604.135 580.114, 594.523 567.477 C 584.910 554.839, 577.055 544.050, 577.067 543.500 C 577.079 542.950, 584.039 533.950, 592.535 523.500 C 601.030 513.050, 607.985 504.163, 607.990 503.750 C 608.003 502.781, 582.844 502.796, 581.424 503.765 C 580.526 504.378, 572.397 514.210, 559.111 530.750 C 554.440 536.565, 554 535.510, 554 518.500 L 554 503 543.469 503 C 535.966 503, 532.799 503.359, 532.458 504.250" stroke="none" fill="#ffffff" fill-rule="evenodd"/><path d="M 538.536 14.034 C 537.920 25.175, 538.050 27.427, 539.431 29.534 C 542.355 33.998, 549.265 32.212, 550.473 26.680 C 550.735 25.481, 551.073 19.212, 551.225 12.749 L 551.500 0.997 545.378 0.999 L 539.257 1 538.536 14.034 M 564.777 14.250 C 564.524 21.538, 564.706 28.277, 565.182 29.227 C 566.398 31.657, 569.716 33.225, 572.064 32.480 C 575.824 31.286, 576.810 28.009, 577.547 14.250 L 578.257 1 571.747 1 L 565.236 1 564.777 14.250 M 236 27.429 C 234.625 28.172, 226.075 31.797, 217 35.486 C 207.925 39.176, 199.037 42.825, 197.250 43.597 C 195.462 44.369, 192.537 45.628, 190.750 46.396 C 188.963 47.163, 178.500 51.497, 167.500 56.026 C 156.500 60.555, 142.325 66.392, 136 68.997 C 129.675 71.602, 112.800 78.545, 98.500 84.427 C 84.200 90.309, 70.776 95.871, 68.670 96.788 C 64.399 98.648, 64.406 98.576, 67.388 109.299 C 68.407 112.964, 69 119.015, 69 125.747 C 69 138.378, 66.304 148.652, 60.280 158.983 C 55.432 167.297, 45.208 177.428, 36.647 182.402 C 32.952 184.549, 29.723 186.639, 29.471 187.047 C 29.218 187.456, 34.232 200.325, 40.613 215.645 C 46.994 230.965, 53.687 247.100, 55.486 251.500 C 57.285 255.900, 65.968 276.825, 74.781 298 C 83.594 319.175, 92.373 340.325, 94.291 345 C 96.208 349.675, 101.252 361.825, 105.500 372 C 109.748 382.175, 115.820 396.800, 118.994 404.500 C 122.168 412.200, 128.436 427.275, 132.923 438 C 137.411 448.725, 143.135 462.563, 145.645 468.750 C 148.155 474.938, 150.789 480, 151.499 480 C 154.377 480, 166.140 475.799, 166.597 474.608 C 166.867 473.905, 165.440 469.318, 163.427 464.415 C 161.414 459.512, 157.754 450.550, 155.294 444.500 C 152.835 438.450, 150.199 432.150, 149.436 430.500 C 148 427.393, 136.121 398.732, 128.297 379.500 C 125.836 373.450, 123.212 367.150, 122.465 365.500 C 121.204 362.712, 97.880 306.543, 90.491 288.500 C 88.689 284.100, 81.992 267.959, 75.608 252.631 C 69.223 237.303, 64 224.602, 64 224.406 C 64 224.210, 62.727 221.226, 61.170 217.775 C 59.614 214.324, 56.881 207.830, 55.096 203.344 L 51.851 195.188 60.463 186.921 C 72.798 175.078, 80.734 161.726, 85.133 145.410 C 86.806 139.206, 87.291 134.385, 87.383 123.058 L 87.500 108.617 96 105.235 C 100.675 103.375, 108.100 100.336, 112.500 98.480 C 116.900 96.625, 127.700 92.148, 136.500 88.532 C 145.300 84.916, 153.400 81.520, 154.500 80.986 C 156.453 80.038, 185.004 68.270, 212 57.285 C 219.425 54.264, 226.774 51.134, 228.331 50.329 L 231.161 48.865 239.331 57.278 C 251.430 69.739, 262.446 76.537, 279.572 82.115 C 285.479 84.039, 288.736 84.379, 301.675 84.425 L 316.850 84.480 323.035 99.490 C 326.437 107.745, 329.824 115.850, 330.563 117.500 C 331.834 120.340, 345.185 152.599, 352.705 171 C 354.616 175.675, 356.756 180.850, 357.462 182.500 C 360.050 188.556, 363.904 197.833, 369.507 211.500 C 372.664 219.200, 376.051 227.300, 377.035 229.500 C 378.018 231.700, 380.249 237.100, 381.992 241.500 C 384.985 249.051, 390.016 261.083, 392.029 265.500 C 392.530 266.600, 395.221 273.125, 398.008 280 C 405.047 297.360, 405.351 298, 406.575 298 C 407.891 298, 418 284.043, 418 282.226 C 418 281.069, 415.106 273.562, 411.553 265.500 C 410.826 263.850, 407.648 256.200, 404.491 248.500 C 401.333 240.800, 397.493 231.575, 395.957 228 C 394.420 224.425, 391.736 217.900, 389.992 213.500 C 388.249 209.100, 386.018 203.700, 385.035 201.500 C 384.051 199.300, 380.660 191.200, 377.499 183.500 C 374.337 175.800, 370.493 166.575, 368.957 163 C 367.420 159.425, 364.740 152.900, 363.001 148.500 C 361.262 144.100, 359.222 139.150, 358.468 137.500 C 357.714 135.850, 353.650 126.175, 349.438 116 C 345.226 105.825, 339.327 91.650, 336.328 84.500 C 333.330 77.350, 330.187 69.588, 329.345 67.250 C 327.597 62.404, 326.862 62.223, 318.932 64.688 C 312.165 66.792, 293.820 67.047, 286 65.147 C 282.975 64.412, 276.675 61.970, 272 59.720 C 265.110 56.404, 261.883 54.007, 254.961 47.065 C 249.550 41.638, 245.224 36.210, 243.152 32.250 C 241.354 28.813, 239.572 26.018, 239.191 26.040 C 238.811 26.062, 237.375 26.687, 236 27.429 M 3.491 278 C 3.491 403.675, 3.608 455.088, 3.750 392.250 C 3.892 329.413, 3.892 226.588, 3.750 163.750 C 3.608 100.913, 3.491 152.325, 3.491 278 M 536.577 56.250 C 535.337 58.149, 532.366 74.442, 530.280 90.775 C 529.625 95.906, 531.808 99, 536.084 99 C 539.423 99, 541.637 96.990, 542.406 93.260 C 544.048 85.301, 546.127 71.650, 546.675 65.242 C 547.200 59.090, 547.020 57.680, 545.492 55.992 C 543.027 53.267, 538.437 53.400, 536.577 56.250 M 563.501 55.999 C 562.241 57.391, 561.156 61.722, 559.929 70.249 C 558.960 76.987, 557.731 85.194, 557.198 88.486 C 556.648 91.880, 556.597 95.440, 557.079 96.708 C 558.606 100.723, 565.899 100.927, 567.993 97.013 C 568.538 95.994, 569.432 92.087, 569.979 88.330 C 570.525 84.574, 571.654 77.039, 572.486 71.587 C 574.416 58.950, 574.441 59.350, 571.545 56.455 C 568.569 53.479, 565.918 53.329, 563.501 55.999 M 220 70.175 C 213.986 72.894, 203.668 77.225, 191.500 82.139 C 186 84.360, 179.124 87.262, 176.220 88.588 C 173.317 89.915, 170.783 91, 170.590 91 C 170.181 91, 115.473 113.576, 112.500 114.971 C 111.400 115.488, 108.883 116.553, 106.906 117.339 L 103.312 118.768 102.691 129.634 C 101.336 153.368, 92.330 175.451, 77.283 191.938 C 73.827 195.725, 71 199.449, 71 200.214 C 71 201.387, 77.978 219.181, 82.485 229.500 C 83.205 231.150, 85.377 236.325, 87.312 241 C 89.246 245.675, 93.745 256.475, 97.311 265 C 100.877 273.525, 105.814 285.450, 108.283 291.500 C 110.752 297.550, 116.248 310.825, 120.498 321 C 128.217 339.484, 133.061 351.191, 147.395 386 C 151.585 396.175, 155.425 405.400, 155.929 406.500 C 156.432 407.600, 157.586 410.300, 158.492 412.500 C 175.825 454.578, 181.951 468.544, 183.185 468.789 C 183.986 468.948, 191.360 466.102, 199.571 462.465 C 267.085 432.559, 322.791 393.148, 371.964 340.500 C 380.213 331.669, 395 314.336, 395 313.499 C 395 313.014, 391.487 303.991, 389.550 299.500 C 387.261 294.193, 383.372 284.839, 377.493 270.500 C 374.336 262.800, 370.949 254.700, 369.965 252.500 C 368.982 250.300, 366.751 244.900, 365.008 240.500 C 363.264 236.100, 360.580 229.575, 359.043 226 C 357.507 222.425, 353.667 213.200, 350.509 205.500 C 347.352 197.800, 344.176 190.150, 343.451 188.500 C 341.917 185.010, 331.802 160.647, 323.523 140.500 C 320.358 132.800, 317.179 125.150, 316.458 123.500 C 315.737 121.850, 313.470 116.450, 311.419 111.500 C 309.368 106.550, 306.999 101.938, 306.154 101.250 C 305.309 100.563, 302.063 100, 298.940 100 C 276.772 100, 249.769 88.915, 233.262 73.038 C 230.381 70.267, 227.231 68.032, 226.262 68.071 C 225.293 68.109, 222.475 69.057, 220 70.175 M 525.206 121.750 C 523.859 122.919, 521.627 128.978, 518.482 140 C 515.893 149.075, 513.555 157.262, 513.286 158.194 C 512.667 160.334, 517.212 165, 519.916 165 C 521.019 165, 522.784 164.075, 523.838 162.944 C 525.758 160.883, 535 130.483, 535 126.227 C 535 123.507, 531.684 120, 529.111 120 C 528.072 120, 526.314 120.787, 525.206 121.750 M 553 122.287 C 550.299 123.646, 550.021 124.397, 543.531 147.805 C 540.059 160.329, 539.937 161.255, 541.444 163.555 C 543.402 166.543, 548.892 166.934, 551.185 164.250 C 552.008 163.287, 554.158 157.100, 555.964 150.500 C 557.771 143.900, 559.868 136.281, 560.624 133.568 C 562.466 126.967, 562.395 126.304, 559.545 123.455 C 556.731 120.640, 556.393 120.580, 553 122.287 M 282.500 186.047 C 274.800 189.283, 268.096 192.081, 267.603 192.264 C 266.560 192.652, 269.413 201.815, 271.439 204.585 C 272.698 206.308, 273.144 206.351, 276.658 205.097 C 281.074 203.520, 303.222 194.112, 303.742 193.591 C 304.502 192.832, 298.711 180.005, 297.644 180.082 C 297.015 180.127, 290.200 182.811, 282.500 186.047 M 504.253 186.199 C 502.389 188.453, 489 220.400, 489 222.595 C 489 227.307, 496.067 229.793, 499.302 226.218 C 501.227 224.092, 506.909 211.886, 511.645 199.704 C 514.695 191.858, 514.926 190.616, 513.775 188.204 C 512.785 186.127, 511.657 185.430, 508.907 185.199 C 506.846 185.026, 504.873 185.450, 504.253 186.199 M 531.314 188.250 C 529.710 190.746, 528 194.247, 528 195.038 C 528 195.484, 525.498 201.751, 522.440 208.965 C 516.080 223.969, 515.716 227.635, 520.365 229.853 C 522.908 231.066, 523.512 231.009, 525.742 229.343 C 528.213 227.499, 534.879 213.279, 540.026 198.874 C 542.295 192.523, 542.322 192.140, 540.673 189.624 C 539.373 187.639, 538.121 187, 535.536 187 C 533.656 187, 531.756 187.563, 531.314 188.250 M 214.750 214.181 C 204.041 218.604, 200 220.732, 200 221.948 C 200 222.870, 200.900 225.487, 202 227.764 C 203.100 230.041, 204 232.375, 204 232.952 C 204 234.432, 206.625 234.253, 210.599 232.500 C 218.527 229.004, 220.855 228.029, 227.500 225.427 C 231.350 223.920, 235.009 222.296, 235.631 221.820 C 236.947 220.811, 232.174 208.011, 230.500 208.060 C 229.950 208.076, 222.863 210.831, 214.750 214.181 M 151 240.425 C 135.711 246.741, 133.190 247.884, 132.661 248.739 C 132.230 249.437, 136.367 260.701, 137.455 261.789 C 137.708 262.042, 144.943 259.431, 153.532 255.987 C 171.002 248.983, 170.126 250.059, 165.983 240.694 C 164.841 238.112, 163.365 236.020, 162.703 236.044 C 162.041 236.068, 156.775 238.040, 151 240.425 M 477.334 247.009 C 476.143 247.484, 473.474 250.939, 471.403 254.687 C 469.332 258.434, 465.244 265.547, 462.319 270.493 C 456.345 280.594, 455.726 284.119, 459.493 286.587 C 463.122 288.965, 466.538 287.693, 469.616 282.816 C 477.490 270.343, 486 254.307, 486 251.943 C 486 247.810, 481.603 245.307, 477.334 247.009 M 504.029 250.971 C 502.945 252.055, 500.698 255.635, 499.037 258.928 C 497.375 262.220, 493.687 268.855, 490.841 273.673 C 487.995 278.491, 485.667 283.662, 485.667 285.163 C 485.667 289.274, 487.741 291.151, 491.897 290.801 C 495.111 290.530, 495.857 289.853, 499.392 284 C 506.369 272.448, 514 257.385, 514 255.164 C 514 252.449, 510.643 249, 508 249 C 506.900 249, 505.113 249.887, 504.029 250.971 M 439.350 306.250 C 438.250 307.488, 434.480 312.325, 430.971 317 C 427.462 321.675, 423.108 327.447, 421.296 329.827 C 417.230 335.164, 416.950 339.266, 420.493 341.587 C 425.487 344.860, 426.319 344.136, 443.336 321.722 C 450.442 312.362, 451.542 308.706, 448.171 305.655 C 445.606 303.333, 441.707 303.596, 439.350 306.250 M 463.725 316.632 C 460.301 321.379, 455.146 328.467, 452.270 332.382 C 446.593 340.109, 445.918 342.918, 449 346 C 453.637 350.637, 456.475 348.374, 470.250 329.050 C 479.435 316.166, 480.638 312.793, 477.171 309.655 C 476.165 308.745, 474.129 308, 472.647 308 C 470.408 308, 468.895 309.463, 463.725 316.632 M 385.854 369.865 C 374.270 381.607, 372 384.397, 372 386.897 C 372 390.140, 374.993 393, 378.387 393 C 380.828 393, 405.407 368.846, 407.083 364.800 C 408.132 362.268, 408.025 361.510, 406.297 359.186 C 402.344 353.872, 400.877 354.638, 385.854 369.865 M 424.347 367.216 C 421.681 370.085, 416.269 375.822, 412.320 379.966 C 404.392 388.285, 401.959 392.128, 402.738 395.104 C 403.466 397.891, 408.493 400.342, 410.871 399.069 C 412.770 398.053, 431.861 377.798, 435.805 372.615 C 438.529 369.035, 438.585 366.585, 436 364 C 432.653 360.653, 429.684 361.472, 424.347 367.216 M 350.364 404.272 C 349.188 404.947, 342.101 410.428, 334.614 416.450 C 322.336 426.326, 321 427.709, 321 430.545 C 321 434.110, 323.593 437, 326.793 437 C 328.020 437, 335.325 431.893, 343.964 424.996 C 356.854 414.705, 358.995 412.600, 358.968 410.246 C 358.909 405.092, 354.392 401.956, 350.364 404.272 M 378.204 414.250 C 370.530 420.381, 355.500 433.293, 353.750 435.257 C 351.250 438.064, 351.578 441.523, 354.570 443.876 C 358.720 447.141, 362.373 444.918, 381.750 427.335 C 388.425 421.278, 390 419.302, 390 416.981 C 390 413.976, 386.972 411, 383.913 411 C 383.010 411, 380.441 412.462, 378.204 414.250 M 289.500 448.832 C 275.102 457.520, 266.522 463.166, 265.250 464.788 C 262.331 468.511, 265.151 474, 269.983 474 C 273.648 474, 300.717 458.042, 303.702 454.122 C 305.548 451.697, 305.250 448.250, 303 446 C 300.101 443.101, 298.406 443.457, 289.500 448.832 M 314.783 463.378 C 298.315 474.486, 297 475.620, 297 478.721 C 297 486.568, 301.942 486.917, 313.261 479.871 C 322.250 474.275, 335.066 465.157, 336.235 463.525 C 338.827 459.907, 335.478 453.944, 330.921 454.064 C 329.590 454.099, 322.328 458.290, 314.783 463.378 M 227.162 483.504 C 220.926 486.527, 215.613 489, 215.357 489 C 213.342 489, 205.705 493.520, 204.429 495.467 C 203.064 497.551, 203.029 498.289, 204.177 500.697 C 206.861 506.323, 212.232 504.976, 238 492.214 C 245.095 488.700, 245.516 488.304, 245.803 484.874 C 246.148 480.746, 244.098 477.998, 240.679 478.004 C 239.480 478.006, 233.398 480.481, 227.162 483.504 M 256.464 498.133 C 247.684 502.606, 239.713 506.951, 238.750 507.788 C 235.014 511.037, 237.778 518, 242.802 518 C 245.177 518, 276.230 502.660, 277.779 500.721 C 280.194 497.699, 280.139 495.048, 277.608 492.517 C 276.223 491.132, 274.492 490, 273.759 490 C 273.027 490, 265.244 493.660, 256.464 498.133 M 350.464 503.234 C 350.197 503.930, 350.096 524.300, 350.239 548.500 L 350.500 592.500 378.500 592.523 L 406.500 592.547 378.750 592.258 L 351 591.969 351 547.484 L 351 503 378.965 503 L 406.930 503 407.267 512.750 L 407.605 522.500 407.552 512.500 L 407.500 502.500 379.225 502.234 C 357.144 502.027, 350.843 502.246, 350.464 503.234 M 450.215 502.743 L 483.930 503.027 484.268 512.763 L 484.605 522.500 484.552 512.500 L 484.500 502.500 450.500 502.479 L 416.500 502.459 450.215 502.743 M 504.250 502.728 L 515 503.068 515 547.534 L 515 592 504.510 592 L 494.021 592 493.745 548.250 L 493.469 504.500 493.484 548.500 L 493.500 592.500 504.500 592.500 L 515.500 592.500 515.500 547.500 L 515.500 502.500 504.500 502.444 L 493.500 502.388 504.250 502.728 M 531.998 502.717 C 531.997 503.148, 536.947 503.359, 542.998 503.188 L 554 502.875 554 518.511 C 554 531.346, 554.249 534.089, 555.390 533.823 C 556.154 533.645, 560.285 529.225, 564.569 524 C 568.853 518.775, 571.478 515.267, 570.401 516.204 C 569.325 517.141, 565.757 521.287, 562.472 525.418 C 559.188 529.549, 556.174 532.944, 555.776 532.964 C 555.378 532.984, 554.928 526.138, 554.776 517.750 L 554.500 502.500 543.250 502.217 C 537.063 502.062, 531.999 502.287, 531.998 502.717 M 581.340 502.765 C 580.702 503.169, 586.440 503.353, 594.090 503.174 C 601.741 502.995, 608 503.243, 608 503.724 C 608 504.206, 607.438 505.231, 606.750 506.002 C 605.687 507.194, 605.761 507.206, 607.250 506.079 C 608.212 505.351, 609 504.135, 609 503.378 C 609 502.276, 606.345 502.003, 595.750 502.015 C 588.462 502.024, 581.978 502.361, 581.340 502.765 M 167 507.635 C 161.225 509.581, 153.673 511.978, 150.217 512.961 C 142.836 515.062, 140 517.294, 140 521 C 140 524.015, 142.722 527, 145.471 527 C 149.227 527, 177.926 517.809, 181.750 515.382 C 184.001 513.953, 184.787 509.725, 183.235 507.400 C 182.567 506.400, 178.575 503.931, 177.816 504.049 C 177.642 504.076, 172.775 505.690, 167 507.635 M 416.360 513 C 416.360 518.225, 416.529 520.362, 416.735 517.750 C 416.941 515.138, 416.941 510.863, 416.735 508.250 C 416.529 505.637, 416.360 507.775, 416.360 513 M 576.887 507.750 C 573.703 511.271, 571.641 514, 572.166 514 C 572.392 514, 574.269 511.975, 576.338 509.500 C 580.468 504.559, 580.837 503.382, 576.887 507.750 M 203.500 522.169 C 196.455 525.070, 183.105 530.010, 179.252 531.140 C 172.671 533.071, 171.903 541.187, 178.094 543.364 C 180.819 544.322, 189.177 541.697, 207.491 534.131 C 214.657 531.170, 216.669 529.883, 217.406 527.786 C 218.100 525.812, 217.910 524.511, 216.643 522.577 C 214.541 519.370, 210.592 519.247, 203.500 522.169 M 92.607 526.356 C 78.242 529.200, 76.518 529.765, 74.677 532.231 C 72.909 534.598, 72.811 535.278, 73.930 537.369 C 75.891 541.033, 78.805 541.934, 85.063 540.810 C 104.050 537.400, 115.701 534.676, 117.234 533.288 C 119.527 531.213, 119.495 526.758, 117.171 524.655 C 114.706 522.424, 111.259 522.663, 92.607 526.356 M 372.453 525.330 C 372.132 526.612, 372.011 529.649, 372.184 532.080 L 372.500 536.500 388.215 536.775 L 403.931 537.050 404.268 546.775 L 404.605 556.500 404.552 546.500 L 404.500 536.500 388.701 536.224 L 372.902 535.949 373.201 530.224 L 373.500 524.500 390 523.962 L 406.500 523.425 389.769 523.212 L 373.038 523 372.453 525.330 M 428.237 523.728 L 438.974 524.067 439.237 558.284 L 439.500 592.500 450.500 592.500 L 461.500 592.500 462 558.500 L 462.500 524.500 473 523.928 L 483.500 523.355 472.500 523.428 L 461.500 523.500 461.237 557.750 L 460.974 592 450.500 592 L 440.026 592 439.763 557.750 L 439.500 523.500 428.500 523.444 L 417.500 523.388 428.237 523.728 M 2.500 528 C 2.120 529.729, 2.018 531.351, 2.273 531.606 C 2.528 531.861, 3.024 530.632, 3.375 528.875 C 4.209 524.707, 3.401 523.899, 2.500 528 M 3.299 554.500 C 3.221 566.600, 3.385 575.938, 3.662 575.250 C 3.965 574.499, 6.041 574, 8.861 574 C 14.647 574, 18.006 571.862, 17.985 568.193 C 17.957 563.375, 14.692 561, 8.093 561 L 4.055 561 3.748 546.750 C 3.530 536.629, 3.400 538.874, 3.299 554.500 M 36 533.647 C 34.625 533.838, 27.921 534.375, 21.102 534.839 C 10.658 535.550, 8.485 535.984, 7.310 537.591 C 5.340 540.285, 6.070 543.983, 9.002 546.161 C 11.371 547.922, 12.457 547.956, 29.369 546.812 C 44.110 545.815, 47.651 545.276, 49.617 543.729 C 52.533 541.436, 52.697 537.697, 50 535 C 48.046 533.046, 43.490 532.606, 36 533.647 M 141 542.605 C 137.975 543.376, 133.925 544.438, 132 544.966 C 130.075 545.494, 124.282 546.943, 119.126 548.187 C 108.963 550.639, 107.094 552.255, 108.401 557.460 C 109.672 562.524, 112.161 562.582, 131.118 557.989 C 140.678 555.672, 149.512 553.142, 150.750 552.365 C 154.720 549.875, 153.246 542.888, 148.500 541.702 C 147.400 541.427, 144.025 541.833, 141 542.605 M 585 555 C 586.742 557.200, 588.393 559, 588.668 559 C 588.943 559, 587.742 557.200, 586 555 C 584.258 552.800, 582.607 551, 582.332 551 C 582.057 551, 583.258 552.800, 585 555 M 65.500 557.037 C 58.350 558.041, 50.873 558.894, 48.885 558.931 C 40.999 559.081, 37.434 566.024, 43.086 570.224 C 45.881 572.301, 44.227 572.367, 72.882 569.033 C 83.139 567.839, 86 566.218, 86 561.599 C 86 555.269, 82.941 554.588, 65.500 557.037 M 372.667 557.667 C 372.300 558.033, 372 561.168, 372 564.631 C 372 569.835, 372.336 571.110, 373.934 571.965 C 375.076 572.576, 381.938 572.910, 390.684 572.781 L 405.500 572.561 391.500 572.287 C 372.045 571.907, 373 572.306, 373 564.564 C 373 560.382, 373.433 557.992, 374.250 557.662 C 374.948 557.381, 375.021 557.123, 374.417 557.079 C 373.821 557.036, 373.033 557.300, 372.667 557.667 M 559.127 565.233 L 556.854 568.500 559.551 565.550 L 562.248 562.600 566.254 567.050 L 570.260 571.500 566.796 567.055 C 564.891 564.611, 562.898 562.466, 562.367 562.289 C 561.835 562.112, 560.378 563.437, 559.127 565.233 M 597.437 571.329 C 598.977 573.348, 600.440 575, 600.687 575 C 601.381 575, 597.052 569.150, 595.772 568.359 C 595.148 567.973, 595.897 569.310, 597.437 571.329 M 555.086 570.396 C 554.322 571.317, 554.038 575.317, 554.253 582.146 L 554.578 592.500 554.789 581.950 C 554.921 575.344, 555.449 570.951, 556.200 570.200 C 556.860 569.540, 557.140 569, 556.822 569 C 556.505 569, 555.724 569.628, 555.086 570.396 M 406.710 572.708 C 407.462 573.243, 408.052 577.143, 408.272 583.034 L 408.624 592.500 408.562 582.581 C 408.512 574.648, 408.200 572.581, 407 572.255 C 405.932 571.965, 405.848 572.095, 406.710 572.708 M 572.437 575.329 C 573.977 577.348, 575.440 579, 575.687 579 C 576.381 579, 572.052 573.150, 570.772 572.359 C 570.148 571.973, 570.897 573.310, 572.437 575.329 M 605.500 582 C 608.039 585.300, 610.342 588, 610.617 588 C 610.892 588, 609.039 585.300, 606.500 582 C 603.961 578.700, 601.658 576, 601.383 576 C 601.108 576, 602.961 578.700, 605.500 582 M 0.177 578.667 C 0.648 581.098, 2.571 581.374, 2.571 579.012 C 2.571 577.905, 1.960 577, 1.212 577 C 0.465 577, -0.001 577.750, 0.177 578.667 M 582.989 588.750 L 586.168 593 599.584 593 C 610.598 593, 613 592.742, 613 591.559 C 613 590.766, 612.555 589.843, 612.011 589.507 C 611.445 589.157, 611.277 589.558, 611.618 590.448 C 612.138 591.801, 610.566 592, 599.357 592 L 586.500 592 583.155 588.250 L 579.811 584.500 582.989 588.750 M 532.884 592.288 C 533.320 592.722, 538.137 592.944, 543.588 592.782 L 553.500 592.488 542.796 591.994 C 536.908 591.722, 532.448 591.855, 532.884 592.288 M 35 641 C 35 641.550, 36.377 642, 38.059 642 C 39.844 642, 40.861 641.583, 40.500 641 C 40.160 640.450, 38.784 640, 37.441 640 C 36.098 640, 35 640.450, 35 641" stroke="none" fill="#f0d561" fill-rule="evenodd"/><path d="M 35.833 1.787 C 35.650 2.219, 33.025 3.776, 30 5.246 C 22.372 8.953, 11.819 19.844, 7.460 28.508 C 5.557 32.290, 4 36.172, 4 37.134 C 4 38.095, 3.550 39.160, 3 39.500 C 1.692 40.308, 1.702 48.698, 3.012 49.507 C 3.690 49.926, 4.016 129.686, 4 291.316 C 3.987 423.967, 3.981 538.913, 3.988 546.750 L 4 561 8.066 561 C 14.692 561, 17.957 563.368, 17.985 568.193 C 18.006 571.856, 14.646 574, 8.884 574 C 5.389 574, 4.025 574.440, 3.463 575.750 C 2.132 578.853, 1.638 602.038, 2.877 603.277 C 3.495 603.895, 4 605.408, 4 606.641 C 4 607.874, 4.450 609.160, 5 609.500 C 5.550 609.840, 6 610.981, 6 612.035 C 6 614.077, 7.436 616.598, 13.012 624.346 C 17.560 630.664, 32.018 640.500, 36.280 640.175 C 37.905 640.052, 39.796 640.416, 40.482 640.985 C 41.337 641.695, 131.666 641.939, 327.615 641.760 L 613.500 641.500 617.969 639.118 C 628.259 633.633, 634.566 627.970, 640.596 618.803 C 643.018 615.120, 645 611.209, 645 610.112 C 645 609.015, 645.450 607.840, 646 607.500 C 646.550 607.160, 647 605.334, 647 603.441 C 647 601.548, 647.450 600, 648 600 C 648.664 600, 649 506.853, 649 322.559 C 649 138.677, 648.663 44.910, 648 44.500 C 647.450 44.160, 647 42.585, 647 41 C 647 39.415, 646.550 37.840, 646 37.500 C 645.450 37.160, 645 36.097, 645 35.137 C 645 28.122, 629.183 10.331, 617.941 4.701 L 611.500 1.476 594.875 1.148 L 578.251 0.819 577.515 14.566 C 576.842 27.133, 576.577 28.514, 574.435 30.656 C 571.489 33.602, 569.525 33.616, 566.620 30.711 C 564.406 28.497, 564.346 27.971, 564.796 14.711 L 565.261 1 558.737 1 C 553.711 1, 552.075 1.363, 551.607 2.582 C 551.273 3.452, 551 9.106, 551 15.148 C 551 28.889, 549.686 31.951, 543.773 31.985 C 541.967 31.995, 540.500 31.167, 539.431 29.534 C 538.050 27.427, 537.920 25.175, 538.536 14.030 L 539.257 0.992 292.879 1.348 C 157.370 1.544, 44.587 2.043, 42.250 2.457 C 39.360 2.969, 38 2.856, 38 2.105 C 38 0.843, 36.337 0.599, 35.833 1.787 M 236 27.429 C 234.625 28.172, 226.075 31.797, 217 35.486 C 207.925 39.176, 199.037 42.825, 197.250 43.597 C 195.462 44.369, 192.537 45.628, 190.750 46.396 C 188.963 47.163, 178.500 51.497, 167.500 56.026 C 156.500 60.555, 142.325 66.392, 136 68.997 C 129.675 71.602, 112.800 78.545, 98.500 84.427 C 84.200 90.309, 70.776 95.871, 68.670 96.788 C 64.399 98.648, 64.406 98.576, 67.388 109.299 C 68.407 112.964, 69 119.015, 69 125.747 C 69 138.378, 66.304 148.652, 60.280 158.983 C 55.432 167.297, 45.208 177.428, 36.647 182.402 C 32.952 184.549, 29.723 186.639, 29.471 187.047 C 29.218 187.456, 34.232 200.325, 40.613 215.645 C 46.994 230.965, 53.687 247.100, 55.486 251.500 C 57.285 255.900, 65.968 276.825, 74.781 298 C 83.594 319.175, 92.373 340.325, 94.291 345 C 96.208 349.675, 101.252 361.825, 105.500 372 C 109.748 382.175, 115.820 396.800, 118.994 404.500 C 122.168 412.200, 128.436 427.275, 132.923 438 C 137.411 448.725, 143.135 462.563, 145.645 468.750 C 148.155 474.938, 150.789 480, 151.499 480 C 154.377 480, 166.140 475.799, 166.597 474.608 C 166.867 473.905, 165.440 469.318, 163.427 464.415 C 161.414 459.512, 157.754 450.550, 155.294 444.500 C 152.835 438.450, 150.199 432.150, 149.436 430.500 C 148 427.393, 136.121 398.732, 128.297 379.500 C 125.836 373.450, 123.212 367.150, 122.465 365.500 C 121.204 362.712, 97.880 306.543, 90.491 288.500 C 88.689 284.100, 81.992 267.959, 75.608 252.631 C 69.223 237.303, 64 224.602, 64 224.406 C 64 224.210, 62.727 221.226, 61.170 217.775 C 59.614 214.324, 56.881 207.830, 55.096 203.344 L 51.851 195.188 60.463 186.921 C 72.798 175.078, 80.734 161.726, 85.133 145.410 C 86.806 139.206, 87.291 134.385, 87.383 123.058 L 87.500 108.617 96 105.235 C 100.675 103.375, 108.100 100.336, 112.500 98.480 C 116.900 96.625, 127.700 92.148, 136.500 88.532 C 145.300 84.916, 153.400 81.520, 154.500 80.986 C 156.453 80.038, 185.004 68.270, 212 57.285 C 219.425 54.264, 226.774 51.134, 228.331 50.329 L 231.161 48.865 239.331 57.278 C 251.430 69.739, 262.446 76.537, 279.572 82.115 C 285.479 84.039, 288.736 84.379, 301.675 84.425 L 316.850 84.480 323.035 99.490 C 326.437 107.745, 329.824 115.850, 330.563 117.500 C 331.834 120.340, 345.185 152.599, 352.705 171 C 354.616 175.675, 356.756 180.850, 357.462 182.500 C 360.050 188.556, 363.904 197.833, 369.507 211.500 C 372.664 219.200, 376.051 227.300, 377.035 229.500 C 378.018 231.700, 380.249 237.100, 381.992 241.500 C 384.985 249.051, 390.016 261.083, 392.029 265.500 C 392.530 266.600, 395.221 273.125, 398.008 280 C 405.047 297.360, 405.351 298, 406.575 298 C 407.891 298, 418 284.043, 418 282.226 C 418 281.069, 415.106 273.562, 411.553 265.500 C 410.826 263.850, 407.648 256.200, 404.491 248.500 C 401.333 240.800, 397.493 231.575, 395.957 228 C 394.420 224.425, 391.736 217.900, 389.992 213.500 C 388.249 209.100, 386.018 203.700, 385.035 201.500 C 384.051 199.300, 380.660 191.200, 377.499 183.500 C 374.337 175.800, 370.493 166.575, 368.957 163 C 367.420 159.425, 364.740 152.900, 363.001 148.500 C 361.262 144.100, 359.222 139.150, 358.468 137.500 C 357.714 135.850, 353.650 126.175, 349.438 116 C 345.226 105.825, 339.327 91.650, 336.328 84.500 C 333.330 77.350, 330.187 69.588, 329.345 67.250 C 327.597 62.404, 326.862 62.223, 318.932 64.688 C 312.165 66.792, 293.820 67.047, 286 65.147 C 282.975 64.412, 276.675 61.970, 272 59.720 C 265.110 56.404, 261.883 54.007, 254.961 47.065 C 249.550 41.638, 245.224 36.210, 243.152 32.250 C 241.354 28.813, 239.572 26.018, 239.191 26.040 C 238.811 26.062, 237.375 26.687, 236 27.429 M 536.577 56.250 C 535.337 58.149, 532.366 74.442, 530.280 90.775 C 529.625 95.906, 531.808 99, 536.084 99 C 539.423 99, 541.637 96.990, 542.406 93.260 C 544.048 85.301, 546.127 71.650, 546.675 65.242 C 547.200 59.090, 547.020 57.680, 545.492 55.992 C 543.027 53.267, 538.437 53.400, 536.577 56.250 M 563.501 55.999 C 562.241 57.391, 561.156 61.722, 559.929 70.249 C 558.960 76.987, 557.731 85.194, 557.198 88.486 C 556.648 91.880, 556.597 95.440, 557.079 96.708 C 558.606 100.723, 565.899 100.927, 567.993 97.013 C 568.538 95.994, 569.432 92.087, 569.979 88.330 C 570.525 84.574, 571.654 77.039, 572.486 71.587 C 574.416 58.950, 574.441 59.350, 571.545 56.455 C 568.569 53.479, 565.918 53.329, 563.501 55.999 M 220 70.175 C 213.986 72.894, 203.668 77.225, 191.500 82.139 C 186 84.360, 179.124 87.262, 176.220 88.588 C 173.317 89.915, 170.783 91, 170.590 91 C 170.181 91, 115.473 113.576, 112.500 114.971 C 111.400 115.488, 108.883 116.553, 106.906 117.339 L 103.312 118.768 102.691 129.634 C 101.336 153.368, 92.330 175.451, 77.283 191.938 C 73.827 195.725, 71 199.449, 71 200.214 C 71 201.387, 77.978 219.181, 82.485 229.500 C 83.205 231.150, 85.377 236.325, 87.312 241 C 89.246 245.675, 93.745 256.475, 97.311 265 C 100.877 273.525, 105.814 285.450, 108.283 291.500 C 110.752 297.550, 116.248 310.825, 120.498 321 C 128.217 339.484, 133.061 351.191, 147.395 386 C 151.585 396.175, 155.425 405.400, 155.929 406.500 C 156.432 407.600, 157.586 410.300, 158.492 412.500 C 175.825 454.578, 181.951 468.544, 183.185 468.789 C 183.986 468.948, 191.360 466.102, 199.571 462.465 C 267.085 432.559, 322.791 393.148, 371.964 340.500 C 380.213 331.669, 395 314.336, 395 313.499 C 395 313.014, 391.487 303.991, 389.550 299.500 C 387.261 294.193, 383.372 284.839, 377.493 270.500 C 374.336 262.800, 370.949 254.700, 369.965 252.500 C 368.982 250.300, 366.751 244.900, 365.008 240.500 C 363.264 236.100, 360.580 229.575, 359.043 226 C 357.507 222.425, 353.667 213.200, 350.509 205.500 C 347.352 197.800, 344.176 190.150, 343.451 188.500 C 341.917 185.010, 331.802 160.647, 323.523 140.500 C 320.358 132.800, 317.179 125.150, 316.458 123.500 C 315.737 121.850, 313.470 116.450, 311.419 111.500 C 309.368 106.550, 306.999 101.938, 306.154 101.250 C 305.309 100.563, 302.063 100, 298.940 100 C 276.772 100, 249.769 88.915, 233.262 73.038 C 230.381 70.267, 227.231 68.032, 226.262 68.071 C 225.293 68.109, 222.475 69.057, 220 70.175 M 525.206 121.750 C 523.859 122.919, 521.627 128.978, 518.482 140 C 515.893 149.075, 513.555 157.262, 513.286 158.194 C 512.667 160.334, 517.212 165, 519.916 165 C 521.019 165, 522.784 164.075, 523.838 162.944 C 525.758 160.883, 535 130.483, 535 126.227 C 535 123.507, 531.684 120, 529.111 120 C 528.072 120, 526.314 120.787, 525.206 121.750 M 553 122.287 C 550.299 123.646, 550.021 124.397, 543.531 147.805 C 540.059 160.329, 539.937 161.255, 541.444 163.555 C 543.402 166.543, 548.892 166.934, 551.185 164.250 C 552.008 163.287, 554.158 157.100, 555.964 150.500 C 557.771 143.900, 559.868 136.281, 560.624 133.568 C 562.466 126.967, 562.395 126.304, 559.545 123.455 C 556.731 120.640, 556.393 120.580, 553 122.287 M 282.500 186.047 C 274.800 189.283, 268.096 192.081, 267.603 192.264 C 266.560 192.652, 269.413 201.815, 271.439 204.585 C 272.698 206.308, 273.144 206.351, 276.658 205.097 C 281.074 203.520, 303.222 194.112, 303.742 193.591 C 304.502 192.832, 298.711 180.005, 297.644 180.082 C 297.015 180.127, 290.200 182.811, 282.500 186.047 M 504.253 186.199 C 502.389 188.453, 489 220.400, 489 222.595 C 489 227.307, 496.067 229.793, 499.302 226.218 C 501.227 224.092, 506.909 211.886, 511.645 199.704 C 514.695 191.858, 514.926 190.616, 513.775 188.204 C 512.785 186.127, 511.657 185.430, 508.907 185.199 C 506.846 185.026, 504.873 185.450, 504.253 186.199 M 531.314 188.250 C 529.710 190.746, 528 194.247, 528 195.038 C 528 195.484, 525.498 201.751, 522.440 208.965 C 516.080 223.969, 515.716 227.635, 520.365 229.853 C 522.908 231.066, 523.512 231.009, 525.742 229.343 C 528.213 227.499, 534.879 213.279, 540.026 198.874 C 542.295 192.523, 542.322 192.140, 540.673 189.624 C 539.373 187.639, 538.121 187, 535.536 187 C 533.656 187, 531.756 187.563, 531.314 188.250 M 214.750 214.181 C 204.041 218.604, 200 220.732, 200 221.948 C 200 222.870, 200.900 225.487, 202 227.764 C 203.100 230.041, 204 232.375, 204 232.952 C 204 234.432, 206.625 234.253, 210.599 232.500 C 218.527 229.004, 220.855 228.029, 227.500 225.427 C 231.350 223.920, 235.009 222.296, 235.631 221.820 C 236.947 220.811, 232.174 208.011, 230.500 208.060 C 229.950 208.076, 222.863 210.831, 214.750 214.181 M 151 240.425 C 135.711 246.741, 133.190 247.884, 132.661 248.739 C 132.230 249.437, 136.367 260.701, 137.455 261.789 C 137.708 262.042, 144.943 259.431, 153.532 255.987 C 171.002 248.983, 170.126 250.059, 165.983 240.694 C 164.841 238.112, 163.365 236.020, 162.703 236.044 C 162.041 236.068, 156.775 238.040, 151 240.425 M 477.334 247.009 C 476.143 247.484, 473.474 250.939, 471.403 254.687 C 469.332 258.434, 465.244 265.547, 462.319 270.493 C 456.345 280.594, 455.726 284.119, 459.493 286.587 C 463.122 288.965, 466.538 287.693, 469.616 282.816 C 477.490 270.343, 486 254.307, 486 251.943 C 486 247.810, 481.603 245.307, 477.334 247.009 M 504.029 250.971 C 502.945 252.055, 500.698 255.635, 499.037 258.928 C 497.375 262.220, 493.687 268.855, 490.841 273.673 C 487.995 278.491, 485.667 283.662, 485.667 285.163 C 485.667 289.274, 487.741 291.151, 491.897 290.801 C 495.111 290.530, 495.857 289.853, 499.392 284 C 506.369 272.448, 514 257.385, 514 255.164 C 514 252.449, 510.643 249, 508 249 C 506.900 249, 505.113 249.887, 504.029 250.971 M 439.350 306.250 C 438.250 307.488, 434.480 312.325, 430.971 317 C 427.462 321.675, 423.108 327.447, 421.296 329.827 C 417.230 335.164, 416.950 339.266, 420.493 341.587 C 425.487 344.860, 426.319 344.136, 443.336 321.722 C 450.442 312.362, 451.542 308.706, 448.171 305.655 C 445.606 303.333, 441.707 303.596, 439.350 306.250 M 463.725 316.632 C 460.301 321.379, 455.146 328.467, 452.270 332.382 C 446.593 340.109, 445.918 342.918, 449 346 C 453.637 350.637, 456.475 348.374, 470.250 329.050 C 479.435 316.166, 480.638 312.793, 477.171 309.655 C 476.165 308.745, 474.129 308, 472.647 308 C 470.408 308, 468.895 309.463, 463.725 316.632 M 385.854 369.865 C 374.270 381.607, 372 384.397, 372 386.897 C 372 390.140, 374.993 393, 378.387 393 C 380.828 393, 405.407 368.846, 407.083 364.800 C 408.132 362.268, 408.025 361.510, 406.297 359.186 C 402.344 353.872, 400.877 354.638, 385.854 369.865 M 424.347 367.216 C 421.681 370.085, 416.269 375.822, 412.320 379.966 C 404.392 388.285, 401.959 392.128, 402.738 395.104 C 403.466 397.891, 408.493 400.342, 410.871 399.069 C 412.770 398.053, 431.861 377.798, 435.805 372.615 C 438.529 369.035, 438.585 366.585, 436 364 C 432.653 360.653, 429.684 361.472, 424.347 367.216 M 350.364 404.272 C 349.188 404.947, 342.101 410.428, 334.614 416.450 C 322.336 426.326, 321 427.709, 321 430.545 C 321 434.110, 323.593 437, 326.793 437 C 328.020 437, 335.325 431.893, 343.964 424.996 C 356.854 414.705, 358.995 412.600, 358.968 410.246 C 358.909 405.092, 354.392 401.956, 350.364 404.272 M 378.204 414.250 C 370.530 420.381, 355.500 433.293, 353.750 435.257 C 351.250 438.064, 351.578 441.523, 354.570 443.876 C 358.720 447.141, 362.373 444.918, 381.750 427.335 C 388.425 421.278, 390 419.302, 390 416.981 C 390 413.976, 386.972 411, 383.913 411 C 383.010 411, 380.441 412.462, 378.204 414.250 M 289.500 448.832 C 275.102 457.520, 266.522 463.166, 265.250 464.788 C 262.331 468.511, 265.151 474, 269.983 474 C 273.648 474, 300.717 458.042, 303.702 454.122 C 305.548 451.697, 305.250 448.250, 303 446 C 300.101 443.101, 298.406 443.457, 289.500 448.832 M 314.783 463.378 C 298.315 474.486, 297 475.620, 297 478.721 C 297 486.568, 301.942 486.917, 313.261 479.871 C 322.250 474.275, 335.066 465.157, 336.235 463.525 C 338.827 459.907, 335.478 453.944, 330.921 454.064 C 329.590 454.099, 322.328 458.290, 314.783 463.378 M 227.162 483.504 C 220.926 486.527, 215.613 489, 215.357 489 C 213.342 489, 205.705 493.520, 204.429 495.467 C 203.064 497.551, 203.029 498.289, 204.177 500.697 C 206.861 506.323, 212.232 504.976, 238 492.214 C 245.095 488.700, 245.516 488.304, 245.803 484.874 C 246.148 480.746, 244.098 477.998, 240.679 478.004 C 239.480 478.006, 233.398 480.481, 227.162 483.504 M 256.464 498.133 C 247.684 502.606, 239.713 506.951, 238.750 507.788 C 235.014 511.037, 237.778 518, 242.802 518 C 245.177 518, 276.230 502.660, 277.779 500.721 C 280.194 497.699, 280.139 495.048, 277.608 492.517 C 276.223 491.132, 274.492 490, 273.759 490 C 273.027 490, 265.244 493.660, 256.464 498.133 M 350.464 503.234 C 350.197 503.930, 350.096 524.300, 350.239 548.500 L 350.500 592.500 377.500 592.781 C 392.350 592.935, 405.529 592.810, 406.786 592.503 C 408.998 591.962, 409.062 591.628, 408.786 582.222 L 408.500 572.500 391 571.940 C 381.375 571.632, 373.387 571.294, 373.250 571.190 C 373.113 571.085, 373 568.123, 373 564.607 C 373 559.700, 373.368 558.073, 374.582 557.607 C 375.452 557.273, 382.668 557, 390.617 557 L 405.070 557 404.785 546.750 L 404.500 536.500 388.701 536.224 L 372.902 535.949 373.201 530.224 L 373.500 524.500 388.500 524.258 C 396.750 524.124, 404.528 523.774, 405.785 523.480 L 408.069 522.944 407.785 512.722 L 407.500 502.500 379.225 502.234 C 357.144 502.027, 350.843 502.246, 350.464 503.234 M 416.612 503.569 C 415.484 506.507, 415.944 521.544, 417.200 522.800 C 417.978 523.578, 422.019 524, 428.687 524 L 438.974 524 439.237 558.250 L 439.500 592.500 450.500 592.500 L 461.500 592.500 462 558.500 L 462.500 524.500 471.500 524.250 C 476.450 524.113, 481.528 523.763, 482.785 523.472 L 485.069 522.944 484.785 512.722 L 484.500 502.500 450.862 502.237 C 420.840 502.002, 417.158 502.145, 416.612 503.569 M 493.500 504.216 C 493.194 505.472, 493.069 525.850, 493.222 549.500 L 493.500 592.500 504.500 592.500 L 515.500 592.500 515.500 547.500 L 515.500 502.500 504.777 502.216 L 494.055 501.933 493.500 504.216 M 532.240 547.217 L 532.500 592.500 541.500 592.794 C 555.642 593.256, 555 593.777, 555 581.829 L 555 571.696 558.250 567.379 C 560.038 565.004, 561.823 563.048, 562.217 563.031 C 562.612 563.014, 568.154 569.750, 574.533 578 L 586.131 593 599.566 593 C 609.277 593, 613 592.671, 613 591.811 C 613 591.158, 608.882 585.195, 603.848 578.561 C 598.815 571.928, 591.277 562, 587.098 556.500 C 582.919 551, 579.163 546.350, 578.750 546.167 C 576.568 545.197, 579.417 540.784, 593.517 523.297 C 602.033 512.735, 609 503.623, 609 503.047 C 609 502.370, 604.250 502, 595.540 502 L 582.081 502 578.613 505.750 C 576.705 507.813, 573.874 511.178, 572.322 513.228 C 566.243 521.258, 556.463 532.921, 555.776 532.960 C 555.378 532.982, 554.928 526.138, 554.776 517.750 L 554.500 502.500 543.240 502.217 L 531.980 501.934 532.240 547.217 M 167 507.635 C 161.225 509.581, 153.673 511.978, 150.217 512.961 C 142.836 515.062, 140 517.294, 140 521 C 140 524.015, 142.722 527, 145.471 527 C 149.227 527, 177.926 517.809, 181.750 515.382 C 184.001 513.953, 184.787 509.725, 183.235 507.400 C 182.567 506.400, 178.575 503.931, 177.816 504.049 C 177.642 504.076, 172.775 505.690, 167 507.635 M 203.500 522.169 C 196.455 525.070, 183.105 530.010, 179.252 531.140 C 172.671 533.071, 171.903 541.187, 178.094 543.364 C 180.819 544.322, 189.177 541.697, 207.491 534.131 C 214.657 531.170, 216.669 529.883, 217.406 527.786 C 218.100 525.812, 217.910 524.511, 216.643 522.577 C 214.541 519.370, 210.592 519.247, 203.500 522.169 M 92.607 526.356 C 78.242 529.200, 76.518 529.765, 74.677 532.231 C 72.909 534.598, 72.811 535.278, 73.930 537.369 C 75.891 541.033, 78.805 541.934, 85.063 540.810 C 104.050 537.400, 115.701 534.676, 117.234 533.288 C 119.527 531.213, 119.495 526.758, 117.171 524.655 C 114.706 522.424, 111.259 522.663, 92.607 526.356 M 36 533.647 C 34.625 533.838, 27.921 534.375, 21.102 534.839 C 10.658 535.550, 8.485 535.984, 7.310 537.591 C 5.340 540.285, 6.070 543.983, 9.002 546.161 C 11.371 547.922, 12.457 547.956, 29.369 546.812 C 44.110 545.815, 47.651 545.276, 49.617 543.729 C 52.533 541.436, 52.697 537.697, 50 535 C 48.046 533.046, 43.490 532.606, 36 533.647 M 141 542.605 C 137.975 543.376, 133.925 544.438, 132 544.966 C 130.075 545.494, 124.282 546.943, 119.126 548.187 C 108.963 550.639, 107.094 552.255, 108.401 557.460 C 109.672 562.524, 112.161 562.582, 131.118 557.989 C 140.678 555.672, 149.512 553.142, 150.750 552.365 C 154.720 549.875, 153.246 542.888, 148.500 541.702 C 147.400 541.427, 144.025 541.833, 141 542.605 M 65.500 557.037 C 58.350 558.041, 50.873 558.894, 48.885 558.931 C 40.999 559.081, 37.434 566.024, 43.086 570.224 C 45.881 572.301, 44.227 572.367, 72.882 569.033 C 83.139 567.839, 86 566.218, 86 561.599 C 86 555.269, 82.941 554.588, 65.500 557.037" stroke="none" fill="#1d60a9" fill-rule="evenodd"/></svg>