<svg width="20" height="20" viewBox="0 0 20 20" fill="none" xmlns="http://www.w3.org/2000/svg">
<g clip-path="url(#clip0_4_32528)">
<g clip-path="url(#clip1_4_32528)">
<g clip-path="url(#clip2_4_32528)">
<mask id="mask0_4_32528" style="mask-type:luminance" maskUnits="userSpaceOnUse" x="0" y="0" width="20" height="20">
<path d="M19.9874 0H0V20H19.9874V0Z" fill="white"/>
</mask>
<g mask="url(#mask0_4_32528)">
<path d="M9.98393 0C8.61086 0 7.31583 0.266978 6.09879 0.800942C4.88176 1.3192 3.82077 2.03376 2.91579 2.94464C2.01081 3.85552 1.30089 4.92343 0.785985 6.14841C0.255482 7.37339 -0.00976562 8.67687 -0.00976562 10.0589C-0.00976562 11.3153 0.208674 12.501 0.645559 13.616C1.08244 14.7468 1.67535 15.7519 2.4243 16.6313C3.17324 17.5108 4.0626 18.2411 5.0924 18.8221C6.1222 19.4032 7.23 19.7958 8.41583 20V12.9564H5.88815V10.0589H8.41583V7.84452C8.41583 6.58814 8.75909 5.6223 9.44563 4.947C10.1322 4.27169 11.0527 3.93404 12.2074 3.93404C12.7535 3.93404 13.2605 3.96545 13.7286 4.02827C14.1967 4.09109 14.4308 4.1225 14.4308 4.1225V6.596H13.1669C12.5428 6.596 12.1176 6.76089 11.8914 7.09069C11.6651 7.4205 11.552 7.7817 11.552 8.17432V10.0589H14.3138L13.8691 12.9564H11.552V19.9764C12.7379 19.788 13.8457 19.4032 14.8755 18.8221C15.9053 18.2411 16.7985 17.5108 17.5553 16.6313C18.312 15.7519 18.901 14.7468 19.3223 13.616C19.7592 12.501 19.9776 11.3153 19.9776 10.0589C19.9776 8.67687 19.7124 7.37339 19.1819 6.14841C18.667 4.92343 17.957 3.85552 17.0521 2.94464C16.1471 2.03376 15.0861 1.3192 13.8691 0.800942C12.652 0.266978 11.357 0 9.98393 0Z" fill="white"/>
</g>
</g>
</g>
</g>
<defs>
<clipPath id="clip0_4_32528">
<rect width="20" height="20" fill="white"/>
</clipPath>
<clipPath id="clip1_4_32528">
<rect width="20" height="20" fill="white"/>
</clipPath>
<clipPath id="clip2_4_32528">
<rect width="20" height="20" fill="white"/>
</clipPath>
</defs>
</svg>
