<svg width="80" height="82" viewBox="0 0 80 82" fill="none" xmlns="http://www.w3.org/2000/svg">
<path d="M79.9918 49.3785C79.8157 45.9202 76.8695 43.2596 73.4112 43.4357C70.7741 43.5703 68.6051 45.3174 67.8001 47.6724L58.2601 46.2566C58.2768 45.942 58.2862 45.6256 58.2862 45.3072C58.2862 35.5094 50.3436 27.5669 40.5458 27.5669C37.7506 27.5669 35.1079 28.2153 32.7559 29.3665L24.1713 13.39C25.3862 12.4696 26.3356 11.1765 26.808 9.60552C27.9947 5.66289 25.7602 1.50481 21.8176 0.318136C17.875 -0.868115 13.7169 1.36588 12.5302 5.30851C11.3436 9.25114 13.578 13.4092 17.5202 14.5955C19.0749 15.0636 20.6604 14.9926 22.0865 14.5018L30.707 30.5447C26.7054 33.2168 23.8537 37.4728 23.0432 42.4161L12.7846 41.8878C12.5435 38.571 9.78283 35.9535 6.40447 35.9535C2.86752 35.9535 0 38.8211 0 42.3576C0 45.8945 2.86752 48.7621 6.40447 48.7621C9.2861 48.7621 11.7223 46.8581 12.5264 44.2398L22.8188 44.7694C22.8136 44.9481 22.8051 45.1259 22.8051 45.3063C22.8051 51.3825 25.8611 56.7426 30.5185 59.9402L22.3639 68.0913C21.1439 67.2201 19.655 66.702 18.0417 66.7016C13.9242 66.7007 10.5861 70.0381 10.5852 74.1555C10.5844 78.273 13.9217 81.6112 18.0391 81.612C22.1566 81.6129 25.4948 78.2755 25.4956 74.1581C25.4961 72.5072 24.9532 70.9866 24.0452 69.7512L32.6217 61.1777C35.007 62.3712 37.6967 63.0462 40.5454 63.0462C49.2352 63.0462 56.4604 56.7969 57.9848 48.5483L67.4684 49.9556C67.4693 49.9752 67.4675 49.9949 67.4684 50.0146C67.6445 53.4729 70.5907 56.1335 74.0494 55.9574C77.5073 55.7829 80.1675 52.8363 79.9918 49.3785ZM18.612 10.9687C16.6725 10.3852 15.5739 8.33976 16.1574 6.40072C16.7409 4.46125 18.7859 3.3622 20.7254 3.94571C22.6649 4.52922 23.7635 6.5747 23.18 8.51417C22.5965 10.4536 20.5514 11.5523 18.612 10.9687ZM6.40447 46.0907C4.34275 46.0907 2.67174 44.4193 2.67174 42.358C2.67174 40.2967 4.34275 38.6257 6.40447 38.6257C8.46577 38.6257 10.1368 40.2967 10.1368 42.358C10.1368 44.4193 8.46577 46.0907 6.40447 46.0907ZM18.0396 77.9306C15.956 77.9301 14.2671 76.2403 14.2675 74.1572C14.2675 72.0733 15.9573 70.3843 18.0408 70.3847C19.0206 70.3852 19.9106 70.7622 20.5809 71.3748L20.8237 71.6176C21.4363 72.2883 21.8125 73.1783 21.8125 74.1585C21.8129 76.242 20.1231 77.931 18.0396 77.9306ZM40.5454 56.2861C34.4812 56.2861 29.5656 51.3705 29.5656 45.3068C29.5656 39.2426 34.4812 34.327 40.5454 34.327C46.6092 34.327 51.5248 39.2426 51.5248 45.3068C51.5243 51.3705 46.6088 56.2861 40.5454 56.2861ZM73.8861 52.7641C72.192 52.8505 70.7489 51.5471 70.6625 49.853C70.5762 48.1593 71.8795 46.7161 73.5732 46.6298C75.2673 46.5434 76.7105 47.8468 76.7968 49.5409C76.8832 51.2346 75.5802 52.6778 73.8861 52.7641Z" fill="white"/>
</svg>
